<svg width="28" height="28" viewBox="0 0 28 28" fill="none" xmlns="http://www.w3.org/2000/svg">
<path d="M6.53277 6.5332C5.5432 6.5332 4.73047 7.34593 4.73047 8.3355V19.6642C4.73047 20.6538 5.5432 21.4665 6.53277 21.4665H22.7535C22.89 21.4665 23.021 21.4123 23.1176 21.3157C23.2141 21.2191 23.2684 21.0882 23.2684 20.9516V18.3769V9.62286C23.2684 9.48629 23.2141 9.35532 23.1176 9.25875C23.021 9.16219 22.89 9.10793 22.7535 9.10792H21.7236V7.04815C21.7236 6.91158 21.6693 6.78061 21.5727 6.68404C21.4762 6.58747 21.3452 6.53322 21.2086 6.5332H6.53277ZM6.53277 7.56309H20.6937V9.10792H6.53277C6.13106 9.10792 5.81801 8.82143 5.7684 8.4401C5.76648 8.42389 5.7638 8.40778 5.76035 8.39182V8.3355C5.76035 7.89868 6.09594 7.56309 6.53277 7.56309ZM5.76035 9.96079C5.99489 10.073 6.25709 10.1378 6.53277 10.1378H21.2086H22.2385V13.4849H19.4063C18.4168 13.4849 17.604 14.2977 17.604 15.2872C17.604 16.2768 18.4168 17.0895 19.4063 17.0895H22.2385V18.3769V20.4367H6.53277C6.09594 20.4367 5.76035 20.1011 5.76035 19.6642V9.96079ZM19.4063 14.5148H22.2385V16.0596H19.4063C18.9695 16.0596 18.6339 15.7241 18.6339 15.2872C18.6339 14.8504 18.9695 14.5148 19.4063 14.5148Z" fill="#CC0000"/>
</svg>
