<svg width="28" height="28" viewBox="0 0 28 28" fill="none" xmlns="http://www.w3.org/2000/svg">
<g clip-path="url(#clip0_4001_3234)">
<path d="M23.3346 10.5003H4.66797V8.71144L14.0013 4.66699L23.3346 8.78921V10.5003ZM5.44575 9.72255H22.5569V9.25588L14.0013 5.48366L5.44575 9.25588V9.72255Z" fill="#CC0000"/>
<path d="M22.1693 12.4449H5.83594V9.72266H22.1693V12.4449ZM6.61372 11.6671H21.3915V10.5004H6.61372V11.6671Z" fill="#CC0000"/>
<path d="M23.3346 23.3333H4.66797V21H23.3346V23.3333ZM5.44575 22.5556H22.5569V21.7778H5.44575V22.5556Z" fill="#CC0000"/>
<path d="M21.7782 21.7777H6.22266V19.4443H21.7782V21.7777ZM7.00043 20.9999H21.0004V20.2221H7.00043V20.9999Z" fill="#CC0000"/>
<path d="M10.8885 20.2225H7.77734V11.667H10.8885V20.2225ZM8.55512 19.4448H10.1107V12.4448H8.55512V19.4448Z" fill="#CC0000"/>
<path d="M15.5564 20.2225H12.4453V11.667H15.5564V20.2225ZM13.2231 19.4448H14.7786V12.4448H13.2231V19.4448Z" fill="#CC0000"/>
<path d="M20.2205 20.2225H17.1094V11.667H20.2205V20.2225ZM17.8872 19.4448H19.4427V12.4448H17.8872V19.4448Z" fill="#CC0000"/>
</g>
<defs>
<clipPath id="clip0_4001_3234">
<rect width="28" height="28" fill="white"/>
</clipPath>
</defs>
</svg>
