<svg width="26" height="26" viewBox="0 0 26 26" fill="none" xmlns="http://www.w3.org/2000/svg">
<path d="M13 0C10.4288 0 7.91543 0.762436 5.77759 2.19089C3.63975 3.61935 1.97351 5.64967 0.989572 8.02511C0.00563268 10.4006 -0.251811 13.0144 0.249797 15.5362C0.751405 18.0579 1.98953 20.3743 3.80762 22.1924C5.6257 24.0105 7.94208 25.2486 10.4638 25.7502C12.9856 26.2518 15.5995 25.9944 17.9749 25.0104C20.3503 24.0265 22.3806 22.3602 23.8091 20.2224C25.2376 18.0846 26 15.5712 26 13C26 9.55218 24.6304 6.24558 22.1924 3.80761C19.7544 1.36964 16.4478 0 13 0ZM22.4666 18.4412H18.446C18.8238 16.7911 19.0244 15.1053 19.0443 13.4126H23.9131C23.8483 15.1817 23.3518 16.9081 22.4666 18.4412ZM13.1733 23.9188C13.1158 23.9188 13.0584 23.9188 13 23.9188C12.9416 23.9188 12.8842 23.9188 12.8267 23.9188C11.9164 23.803 10.9198 22.7873 10.1281 21.1523C9.95295 20.7895 9.79117 20.4027 9.64279 20.0035H16.3572C16.2088 20.4065 16.0471 20.7933 15.8719 21.1523C15.0802 22.7873 14.0837 23.803 13.1733 23.9188ZM9.1584 18.4412C8.75097 16.7955 8.53606 15.1079 8.51797 13.4126H17.482C17.464 15.1079 17.249 16.7955 16.8416 18.4412H9.1584ZM2.0869 13.4126H6.95855C6.97849 15.1053 7.17906 16.7911 7.55685 18.4412H3.53624C2.65012 16.9084 2.15254 15.1819 2.0869 13.4126ZM3.83682 7.0648H7.67939C7.27896 8.63131 7.04473 10.2356 6.98057 11.8512H2.13859C2.31795 10.1439 2.89998 8.50343 3.83682 7.0648ZM12.8267 2.08115H13H13.1733C14.0837 2.19698 15.0802 3.21266 15.8719 4.84772C15.9743 5.05928 16.071 5.28041 16.1638 5.50633H9.84095C9.93668 5.28041 10.0324 5.05928 10.1281 4.84772C10.9198 3.21266 11.9164 2.19698 12.8267 2.08115ZM16.7076 7.0648C17.1428 8.62578 17.3953 10.232 17.46 11.8512H8.53999C8.6047 10.232 8.8572 8.62578 9.29242 7.0648H16.7076ZM19.0194 11.8512C18.9553 10.2356 18.721 8.63131 18.3206 7.0648H22.1632C23.1 8.50343 23.6821 10.1439 23.8614 11.8512H19.0194ZM20.934 5.50346H17.8362C17.4246 4.37481 16.9249 3.39264 16.3505 2.60574C18.0988 3.17177 19.6762 4.16937 20.9369 5.50633L20.934 5.50346ZM9.64949 2.60574C9.07512 3.39264 8.57637 4.37481 8.16473 5.50633H5.06311C6.32382 4.16937 7.90121 3.17177 9.64949 2.60574ZM4.62372 19.9997H7.99242C8.43277 21.3399 8.99566 22.4954 9.64853 23.3942C7.68756 22.7581 5.94589 21.5815 4.62372 19.9997ZM16.3505 23.3942C17.0034 22.4954 17.5663 21.3409 18.0066 19.9997H21.3763C20.0539 21.5816 18.3118 22.7582 16.3505 23.3942Z" fill="#CC0000"/>
</svg>
